<svg 
  viewBox="0 0 24 24"
  xmlns="http://www.w3.org/2000/svg"
  aria-labelledby="flagTitleID flagDescID">
  <title id="flagTitleID">Flag icon</title>
  <desc id="flagDescID">Flag icon</desc>
  <path d="m9.87728502.65151924.20055238-.08032924c1.8213373-.51951764 3.5422597-.03975055 5.1627673 1.43930125.2008297.17335658.4920884.473142.8737759.89935625.3816875.42621426.6862608.73262477.9137199.91923153 1.6205076 1.38630052 3.7566816 1.87269269 6.4085221 1.45917653.0538135-.01325018.1309277-.02650037.2313426-.03975055.1004148-.01325019.177529-.02650037.2313425-.03975055l.1006923.01987527c-2.3705679 5.94381177-3.8371244 9.60886797-4.3996697 10.99516847-.039944.1065535-.1370302.1998569-.2912586.2799101s-.2782213.1134547-.3719789.1002045c-2.8260409-.412964-4.9086788-1.3258465-6.2479137-2.7386474-1.834652-1.9323185-3.83684707-2.7654239-6.00658519-2.499316-.49541706 1.2929971-1.1015124 2.8623158-1.81828603 4.7079561-.71677362 1.8456402-1.31621162 3.391495-1.79831401 4.6375644-.48210238 1.2460694-.83688313 2.1622644-1.06434226 2.7485851-.02662936.066803-.06685079.1634189-.12066429.2898478-.0538135.1264288-.08737759.2097946-.10069227.2500972-.32121666-.0397506-.71289017-.3130356-1.17502053-.8198551-.46213037-.5068196-.65963146-.8333814-.59250328-.9796855l8.59795482-22.18991782c.01331468-.02650037.09042887-.0030365.23134257.07039161.1409137.0734281.32177144.17335657.54257322.29978541s.38473878.21641968.491811.26997251zm7.91474528 13.11436976c.0937575.0132502.8906966-1.8058897 2.3908173-5.45741959.0937575-.21310713.2210792-.52641877.3819649-.93993494l.1805803-.41986521c-.2407738 0-.5520044-.00993764-.9336919-.02981291-.3816875-.01987528-.9844542-.12642884-1.8083-.31966069-.8238459-.19323186-1.4299412-.44967813-1.8182861-.76933882-.147571-.11980375-.6296734-.54629405-1.4463071-1.27947091-.1875151-.16010639-.3414661-.29012382-.461853-.3900523-.1203869-.09992847-.2743379-.21641967-.461853-.3494736-.1875151-.13305394-.3514521-.2396075-.491811-.3196607-.1403589-.08005319-.3042959-.16341893-.491811-.25009722s-.3650441-.14326762-.5325872-.16976799c-.1675431-.02650036-.3517295-.036438-.5525592-.02981291-.2008298.00662509-.4016596.03671405-.6024893.09026688-.2812726.08005319-.4687877.23988354-.5625453.47949104l-2.39081724 5.7977837c.68293214.01325019 1.30234217.07977715 1.85823004.1995809.5558879.11980375 1.0446477.30309796 1.4662792.54988267.4216315.2467847.7431256.4565792.9644822.6293837.2213565.1728045.4926431.412688.8138598.7196506 1.3126056 1.2659447 2.8124488 2.0189969 4.4995298 2.2591564z"
  class="fill-color" />
</svg>
