<svg
  viewBox="0 0 17 30"
  xmlns="http://www.w3.org/2000/svg"
  aria-labelledby="tumblrTitleID tumblrDescID"
>
  <title id="tumblrTitleID">Tumblr icon</title>
  <desc id="tumblrDescID">A lowercase letter t</desc>
  <path d="m.0031858 6.48788258v5.27409262c.15504229.0307961.67592066.0307961 1.56263511 0 .88671446-.0307961 1.34546972.015929 1.37626579.1401752.09345015 1.5557326.13221072 3.1969507.11628172 4.9236546-.01592901 1.7267038-.03132704 3.3132324-.04619411 4.7595858s.20282929 2.7997876.65308909 4.0603027c.45025979 1.260515 1.18936549 2.2013881 2.2173171 2.8226192 1.24458603.7773353 2.96332537 1.19733 5.156218 1.259984 2.1928926.0626541 4.1293283-.2484924 5.8093071-.9334395-.0307961-.3419426-.0228316-1.3921948.0238935-3.1507566.0467251-1.7585619-.0079645-2.730762-.1640687-2.9166003-3.5160618 1.0268897-5.6473623.6844161-6.3939015-1.0274207-.71574316-1.6491826-.85591838-4.9470171-.42052566-9.8935032v-.0461941h6.67265896v-5.27409262h-6.67265896v-6.48628968h-4.01410854c-.28035044 1.27538211-.60689498 2.33306785-.97963364 3.17305723-.37273865.83998938-.97166913 1.58652862-1.79679144 2.2396177-.82512231.65308909-1.85944552 1.01096068-3.10296962 1.07361475z" class="fill-color" />
</svg>
