<svg
  viewBox="0 0 30 25"
  xmlns="http://www.w3.org/2000/svg"
  aria-labelledby="twitterTitleID twitterDescID"
>
  <title id="twitterTitleID">Twitter icon</title>
  <desc id="twitterDescID">The Twitter logo, a cartoon bird</desc>
  <path class="fill-color" d="m29.3077711 4.03219368c-.3111465.40459666-.7391057.82459135-1.2838776 1.25998407-.5447719.43539273-.910077.77786628-1.0959153 1.02742064.1550422 2.30227178-.1407062 4.49569541-.8872455 6.58027081-.7465392 2.0845754-1.7888269 3.8888004-3.1268631 5.4126749-1.3380362 1.5238746-2.9404938 2.8072212-4.8073728 3.8500398-1.8668791 1.0428187-3.8033148 1.7351993-5.8093071 2.0771419-2.0059924.3419426-4.09056779.287253-6.25372628-.1640687s-4.1776463-1.3300717-6.04346342-2.6362499c2.70686843.4661888 5.63143323-.2495543 8.77369439-2.1472294-3.04881101-.7465393-4.85303599-2.2709448-5.41267493-4.5732166 1.12033981.0626541 1.85148101.0626541 2.19342359 0-2.89376872-1.2753821-4.35605112-3.3440285-4.38684719-6.20593921.21769636.03079607.52884287.14760875.93343953.35043805.40459665.20282929.77786627.30371297 1.11980885.30265104-.80919331-.71574316-1.40015929-1.89024159-1.77289794-3.52349528s-.17044033-3.14969469.60689498-4.54932302c1.80422498 1.86687906 3.66313953 3.34455949 5.57674366 4.43304131 1.91360412 1.08848181 4.19251336 1.7415709 6.83672776 1.95926726-.2484925-1.18193196-.1709713-2.30970531.2325634-3.38332006.4035347-1.07361474 1.0337922-1.92156863 1.8907726-2.54386164.8569803-.62229302 1.7978533-1.07361475 2.8226191-1.35396519 1.0247658-.28035043 2.0670535-.27238593 3.1268632.02389351 1.0598096.29627944 1.9619221.86388288 2.7063374 1.70281033 1.3688323-.37380059 2.6601434-.87184739 3.8739334-1.4941404-.0307961.37380058-.1396443.73910569-.3265446 1.09591534s-.350438.62123109-.4906133.79326431c-.1401752.17203322-.3812341.42849016-.7231767.76937081-.3419425.34088064-.5596389.57397504-.653089.69928319.2176963-.09345015.6844161-.23362536 1.4001592-.42052566.7157432-.18690029 1.197861-.38919862 1.4463534-.60689498 0 .44017143-.1555732.86016612-.4667197 1.26476277z" />
</svg>
