<svg
  viewBox="0 0 25 31"
  xmlns="http://www.w3.org/2000/svg"
  aria-labelledby="pinterestTitleID pinterestDescID"
>
  <title id="pinterestTitleID">Pinterest icon</title>
  <desc id="pinterestDescID">A stylized letter p</desc>
  <path d="m7.00079645 29.0694534.65308909-1.0736148.42052566-.8394584c.28035043-.5914969.53680737-1.2525505.7693708-1.9831608.23256343-.7306102.46565783-1.6019266.6992832-2.6139492.23362536-1.0120226.41256115-1.7511283.5368074-2.2173171.030796.0307961.0775211.0854856.1401752.1640687s.1093791.1332727.1401752.1640687c.1242462.1869003.2176964.3111465.2803504.3727387 1.1203399.9642356 2.3803239 1.4622824 3.7799523 1.4941404 1.4930784 0 2.8773087-.3424736 4.1526908-1.0274207 2.1153715-1.1819319 3.6711041-3.1109341 4.6671977-5.7870064.4045966-1.1511359.6844161-2.5980203.8394584-4.3406531.1242462-1.58652864-.0780521-3.09553611-.606895-4.52702244-.9026435-2.36492586-2.5512952-4.20047787-4.9459552-5.50665605-1.2753821-.65308909-2.5974893-1.05768574-3.9663215-1.21378996-1.5249365-.21769637-3.1273941-.17097129-4.80737288.14017522-2.76846057.52884287-5.02400728 1.74210187-6.76664011 3.63977699-1.99112527 2.14616756-2.98668791 4.61941063-2.98668791 7.41972924 0 2.9553608.94883756 5.0553343 2.84651269 6.2999203l.83945841.4205257c.12424622 0 .2251299.015398.30265104.0461941.07752115.0307961.15504229.0074335.23256343-.0700876.07752115-.0775212.13221072-.1242462.16406873-.1401752.031858-.015929.07061857-.0860167.11628171-.2102629s.07699018-.2097318.09398111-.2564569c.01699094-.0467251.04831798-.1476088.09398112-.302651.04566314-.1550423.06902567-.2484925.07008761-.2803505l.14017521-.5129139c.06265408-.3111465.09398112-.5288428.09398112-.653089-.03079607-.1242463-.12424622-.2798195-.28035044-.4667198s-.23362537-.2957485-.23256343-.3265446c-.62229302-.8091933-.94883756-1.7893579-.97963363-2.9404938-.03079608-1.5557325.28035043-2.97128982.93343952-4.24667193 1.18193196-2.45731406 3.17305723-3.9349945 5.9733758-4.4330413 1.6173247-.31114651 3.1337657-.25645693 4.549323.16406872 1.4155574.42052566 2.5120037 1.09697729 3.289339 2.02935488.8399894 1.02688967 1.3221072 2.28687374 1.4463534 3.77995221.1242462 1.39962832-.0313271 2.97075892-.4667198 4.71339172-.3738006 1.3688323-.9180415 2.5512952-1.6327227 3.5473888-.9960936 1.244586-2.0851064 1.8822771-3.2670384 1.9130732-1.7107748.062654-2.7530625-.6371601-3.1268631-2.0994425-.0934501-.4661888 0-1.2127281.2803505-2.2396177.7465392-2.5826222 1.1352068-3.9360565 1.1660029-4.0603027.1869003-1.02688965.2022983-1.78935789.0461941-2.28740469-.1869003-.65308909-.5755679-1.15856942-1.1660029-1.516441-.590435-.35787159-1.2748512-.39663216-2.05324841-.11628172-1.18193196.43539273-1.95979824 1.39962832-2.33359882 2.89270679-.31114651 1.30617822-.2490234 2.62828532.18636932 3.96632152 0 .0626541.03132704.1401752.09398112.2325635.06265407.0923882.09398111.1699093.09398111.2325634 0 .0934501-.03132704.2490234-.09398111.4667197-.06265408.2176964-.09398112.3578716-.09398112.4205257-.09345014.4353927-.30371297 1.3300717-.63078848 2.6840369s-.58353245 2.3882884-.76937081 3.1029696c-.7773353 3.2049152-1.11980885 5.5847081-1.02742064 7.1393788l.37273866 2.7541244c.65308908-.5914969 1.22865703-1.229188 1.72670383-1.9130731z" class="fill-color" />
</svg>
